# xmcd
#
# Track frame offsets: 
#        150
#        22950
#        35353
#        54114
#        79637
#        103460
#        126210
#        139821
#        172314
#        188371
#        202600
#        219801
#        234297
#        251331
#        267009
#        286444
#        306587
#        326960
#
# Disc length: 4785 seconds
#
# Revision: 0
# Processed by: cddbd v1.5.2PL0 Copyright (c) Steve Scherf et al.
# Submitted via: ExactAudioCopy v1.1
#
DISCID=f612af12
DTITLE=Various Artist - Akella Presents - vol.91 - Heavy Blues-Rock  
DTITLE=CD2
DYEAR=2016
DGENRE=Rock
TTITLE0=The Charles Hyde Band - Rip It Up
TTITLE1=The Jondo Trio - Stand Before the Lord
TTITLE2=The Quireboys - Stroll On
TTITLE3=Jordan Patterson Band - Heartbreaker
TTITLE4=Black Mountain Prophet - My Baby Don't Love Me
TTITLE5=Angel Forrest - Touch Of My Hand
TTITLE6=Pat Travers - Waitin' For The Bus
TTITLE7=Jason Speegle - Spirit
TTITLE8=Robin Trower - Delusion Sweet Delusion
TTITLE9=AC/DC - Sweet Candy
TTITLE10=Dustin Douglas and The Electric Gentlemen - Bad Man
TTITLE11=Keith Thompson Band - Breathe
TTITLE12=Ronnie Baker Brooks - If It Don't Make Dollars
TTITLE13=Ryan Reid  - Bring It On
TTITLE14=The Buddaheads - Somthin New
TTITLE15=Royal Southern Brotherhood - Spirit Man
TTITLE16=Super Vintage - Trouble Love
TTITLE17=BloYaTop - Make It Work
EXTD=
EXTT0=
EXTT1=
EXTT2=
EXTT3=
EXTT4=
EXTT5=
EXTT6=
EXTT7=
EXTT8=
EXTT9=
EXTT10=
EXTT11=
EXTT12=
EXTT13=
EXTT14=
EXTT15=
EXTT16=
EXTT17=
PLAYORDER=
